<svg width="52" height="76" viewBox="0 0 52 76" fill="none" xmlns="http://www.w3.org/2000/svg">
<path fill-rule="evenodd" clip-rule="evenodd" d="M23.9742 22.4683C33.442 17.7542 45.523 22.4265 51.675 27.3926C48.4224 32.3895 42.6935 38.3494 35.0545 39.0884C27.0393 39.8639 20.7265 35.3003 17.2031 31.0863C24.476 31.0748 32.3025 31.6169 36.9014 28.9317C32.0924 28.3421 22.4774 29.8484 17.8186 27.393C18.7246 22.3297 21.1705 17.5761 20.2809 11.6962C18.2035 15.9795 18.1489 22.2862 15.0485 25.5466C8.7148 16.6131 14.932 3.1923 22.7433 0C27.3733 5.05557 29.7146 16.9175 23.9742 22.4683V22.4683V22.4683Z" fill="white"/>
<path fill-rule="evenodd" clip-rule="evenodd" d="M6.12371 12.0034C7.82942 12.7395 7.91395 15.2613 7.97057 16.9281C8.26805 25.7184 5.36627 34.7602 9.817 41.2428C10.8916 42.8078 12.9527 45.4827 16.2808 44.9361C14.9509 40.1735 4.83612 32.407 11.9716 25.8533C13.8932 26.2296 13.3228 28.9993 13.8185 30.4699C15.5537 35.6219 21.8989 39.3012 24.2829 44.628C29.8505 57.0693 17.9705 67.1788 12.2794 75.4061C17.5212 57.9014 0.387031 50.965 0.275844 36.01C0.247132 32.1328 1.58805 28.3382 2.7382 24.3142C3.90393 20.2352 4.22356 15.6991 5.50827 12.0029C5.71343 12.0033 5.91858 12.0033 6.12375 12.0033L6.12371 12.0034V12.0034Z" fill="white"/>
</svg>
