<?xml version="1.0" encoding="UTF-8"?>
<!DOCTYPE svg PUBLIC "-//W3C//DTD SVG 1.1//EN" "http://www.w3.org/Graphics/SVG/1.1/DTD/svg11.dtd">
<!-- Creator: CorelDRAW -->
<svg xmlns="http://www.w3.org/2000/svg" xml:space="preserve" width="154px" height="147px" version="1.1" shape-rendering="geometricPrecision" text-rendering="geometricPrecision" image-rendering="optimizeQuality" fill-rule="evenodd" clip-rule="evenodd"
viewBox="0 0 2.67 2.55"
 xmlns:xlink="http://www.w3.org/1999/xlink"
 xmlns:xodm="http://www.corel.com/coreldraw/odm/2003">
 <g id="Layer_x0020_1">
  <metadata id="CorelCorpID_0Corel-Layer"/>
  <path fill="white" d="M1.34 0.52c0.45,0 0.82,0.36 0.82,0.82 0,0.45 -0.37,0.82 -0.82,0.82 -0.45,0 -0.81,-0.37 -0.81,-0.82 0,-0.46 0.36,-0.82 0.81,-0.82z"/>
  <path fill="white" fill-rule="nonzero" d="M1.33 0c0.3,0 0.57,0.11 0.76,0.3 0.18,0.17 0.3,0.4 0.31,0.66 0.12,0.05 0.22,0.14 0.27,0.23l0 0.39c-0.08,0.14 -0.24,0.25 -0.45,0.29l0 0 0 -0.97c0.03,0.01 0.06,0.02 0.09,0.02 -0.02,-0.22 -0.13,-0.42 -0.29,-0.58 -0.18,-0.16 -0.42,-0.27 -0.69,-0.27 -0.27,0 -0.51,0.11 -0.69,0.27 -0.16,0.16 -0.27,0.36 -0.29,0.59 0.03,-0.01 0.07,-0.02 0.11,-0.03l0 0.97c-0.21,-0.04 -0.38,-0.15 -0.46,-0.29l0 -0.39c0.05,-0.09 0.14,-0.17 0.25,-0.22 0.02,-0.26 0.13,-0.5 0.31,-0.67 0.2,-0.19 0.47,-0.3 0.77,-0.3z"/>
  <path fill="white" fill-rule="nonzero" d="M2.44 1.73c0.01,0.32 -0.01,0.5 -0.11,0.61 -0.1,0.12 -0.26,0.15 -0.54,0.15l0 -0.09c0.25,0 0.4,-0.03 0.47,-0.12 0.08,-0.09 0.1,-0.25 0.09,-0.55l0.09 0z"/>
  <path fill="white" d="M1.59 2.35l0.17 0c0.04,0 0.08,0.03 0.08,0.08l0 0.04c0,0.04 -0.04,0.08 -0.08,0.08l-0.17 0c-0.05,0 -0.08,-0.04 -0.08,-0.08l0 -0.04c0,-0.05 0.03,-0.08 0.08,-0.08z"/>
 </g>
</svg>
