<svg width="53" height="53" viewBox="0 0 53 53" fill="none" xmlns="http://www.w3.org/2000/svg">
<path d="M26.5 53C37.4776 53 46.375 46.375 46.375 34.7812C46.375 29.8125 44.7188 21.5312 38.0938 14.9062C38.9219 19.875 33.9531 21.5312 33.9531 21.5312C36.4375 13.25 29.8125 1.65625 19.875 0C21.0576 6.625 21.5312 13.25 13.25 19.875C9.10938 23.1875 6.625 28.9148 6.625 34.7812C6.625 46.375 15.5224 53 26.5 53Z" fill="#EF4444"/>
<path d="M14.1954 39.8208V29.2458H15.5904V33.8658H21.7404V29.2458H23.1504V39.8208H21.7404V35.0508H15.5904V39.8208H14.1954ZM28.939 39.9558C28.199 39.9558 27.559 39.8008 27.019 39.4908C26.479 39.1708 26.059 38.7208 25.759 38.1408C25.459 37.5508 25.309 36.8508 25.309 36.0408C25.309 35.2408 25.459 34.5508 25.759 33.9708C26.059 33.3808 26.479 32.9308 27.019 32.6208C27.559 32.3008 28.199 32.1408 28.939 32.1408C29.679 32.1408 30.319 32.3008 30.859 32.6208C31.409 32.9308 31.829 33.3808 32.119 33.9708C32.419 34.5508 32.569 35.2408 32.569 36.0408C32.569 36.8508 32.419 37.5508 32.119 38.1408C31.829 38.7208 31.409 39.1708 30.859 39.4908C30.319 39.8008 29.679 39.9558 28.939 39.9558ZM28.939 38.8758C29.619 38.8758 30.164 38.6358 30.574 38.1558C30.984 37.6758 31.189 36.9708 31.189 36.0408C31.189 35.1108 30.984 34.4108 30.574 33.9408C30.164 33.4708 29.619 33.2358 28.939 33.2358C28.249 33.2358 27.699 33.4708 27.289 33.9408C26.889 34.4108 26.689 35.1108 26.689 36.0408C26.689 36.9708 26.889 37.6758 27.289 38.1558C27.699 38.6358 28.249 38.8758 28.939 38.8758ZM37.3484 39.9558C36.5584 39.9558 35.9584 39.7408 35.5484 39.3108C35.1484 38.8708 34.9484 38.2108 34.9484 37.3308V33.3258H33.4784V32.2758H34.9484V30.2508L36.3134 29.8758V32.2758H38.4434V33.3258H36.3134V37.2108C36.3134 37.7908 36.4134 38.2058 36.6134 38.4558C36.8234 38.6958 37.1234 38.8158 37.5134 38.8158C37.7134 38.8158 37.8834 38.8008 38.0234 38.7708C38.1734 38.7308 38.3084 38.6858 38.4284 38.6358V39.7608C38.2784 39.8208 38.1034 39.8658 37.9034 39.8958C37.7134 39.9358 37.5284 39.9558 37.3484 39.9558Z" fill="#FAFAFA"/>
</svg>
