<svg width="299" height="76" viewBox="0 0 299 76" fill="none" xmlns="http://www.w3.org/2000/svg">
<path fill-rule="evenodd" clip-rule="evenodd" d="M270.974 22.4683C280.442 17.7542 292.523 22.4265 298.675 27.3926C295.422 32.3895 289.693 38.3494 282.055 39.0884C274.039 39.8639 267.727 35.3003 264.203 31.0863C271.476 31.0748 279.302 31.6169 283.901 28.9317C279.092 28.3421 269.477 29.8484 264.819 27.393C265.725 22.3297 268.171 17.5761 267.281 11.6962C265.203 15.9795 265.149 22.2862 262.049 25.5466C255.715 16.6131 261.932 3.1923 269.743 0C274.373 5.05557 276.715 16.9175 270.974 22.4683V22.4683Z" fill="white"/>
<path fill-rule="evenodd" clip-rule="evenodd" d="M253.124 12.0034C254.829 12.7395 254.914 15.2613 254.971 16.9281C255.268 25.7184 252.366 34.7602 256.817 41.2428C257.892 42.8078 259.953 45.4827 263.281 44.9361C261.951 40.1735 251.836 32.407 258.972 25.8533C260.893 26.2296 260.323 28.9993 260.818 30.4699C262.554 35.6219 268.899 39.3012 271.283 44.628C276.851 57.0693 264.971 67.1788 259.279 75.4061C264.521 57.9014 247.387 50.965 247.276 36.01C247.247 32.1328 248.588 28.3382 249.738 24.3142C250.904 20.2352 251.224 15.6991 252.508 12.0029C252.713 12.0033 252.919 12.0033 253.124 12.0033L253.124 12.0034Z" fill="white"/>
<path d="M23.0446 12.2305L8.71567 31.5064L20.7677 46.0708H16.9603L6.90929 33.9398L2.9443 39.2008V46.0708H0V12.2305H3.02281V34.1753L19.3931 12.2305H23.0446ZM7.61592 38.9647L6.87058 40.0645V46.0708H5.6536V40.0645L7.02815 38.2581L7.61592 38.9647V38.9647ZM8.12626 12.2305L6.90929 24.518L5.73157 26.0883V12.2305H8.12626V12.2305ZM27.5979 12.2305L13.3082 31.3886L25.3995 46.1101H24.2218L12.1305 31.3886L26.3809 12.2305H27.5979Z" fill="white"/>
<path d="M57.5414 46.0703H54.5579V36.8055H33.3982V46.0703H30.4141V12.2305H33.3982V33.8225H54.5579V12.2305H57.5414V46.0703ZM38.4618 12.2305L37.5594 31.1525H36.0677V12.2305H38.4618ZM52.3987 40.2602H37.5202L37.2454 46.0703H36.0677V39.4756H52.3987V40.2602V40.2602ZM62.6056 12.2305L61.4279 46.0703H60.2115V12.2305H62.6056Z" fill="white"/>
<path d="M91.5266 46.07H88.386L87.1298 42.6153H69.856L68.5998 46.07H65.4199L78.4932 10.5421L91.5266 46.07ZM85.9913 39.671L78.4932 19.218L70.9557 39.671H85.9913ZM72.9186 45.3241L72.6046 46.1092H71.4274L71.7409 45.3241H72.9186ZM79.9064 30.7596L75.9414 36.9623H74.7637L78.4937 26.9124L79.9064 30.7596ZM88.7393 3.24078L81.5552 11.2487H79.3961L84.2645 3.24023H88.7393V3.24078ZM95.5701 46.1098H94.3924L81.6735 12.27H82.89L95.5701 46.1098Z" fill="white"/>
<path d="M124.85 48.1109L101.296 19.139V46.0695H98.3906V11.0127L121.945 39.9846V13.0546H124.85V48.1109ZM119.353 32.6042L103.257 13.0546H104.396L119.353 31.1915V32.6042ZM106.634 29.8175L105.064 46.07H103.925V26.4806L106.634 29.8175ZM128.619 46.1093H127.441V13.0546H128.619V46.1093Z" fill="white"/>
<path d="M158.559 46.0703H155.575V36.8055H134.416V46.0703H131.432V12.2305H134.416V33.8225H155.575V12.2305H158.559V46.0703ZM139.48 12.2305L138.578 31.1525H137.086V12.2305H139.48ZM153.416 40.2602H138.538L138.263 46.0703H137.085V39.4756H153.416V40.2602V40.2602ZM163.623 12.2305L162.445 46.0703H161.229V12.2305H163.623Z" fill="white"/>
<path d="M193.524 39.9461C193.524 41.6478 192.928 43.0938 191.738 44.2846C190.547 45.4754 189.114 46.0703 187.439 46.0703H175.27V12.2305H178.685C182.584 12.2305 185.908 13.605 188.656 16.353C191.404 19.101 192.779 22.4248 192.779 26.3244C192.779 29.3085 191.902 32.0167 190.149 34.4507C192.399 35.6022 193.524 37.4337 193.524 39.9461ZM189.755 26.3238C189.755 23.0791 188.643 20.4091 186.419 18.3154C184.194 16.2216 181.446 15.1742 178.175 15.1742V37.3939H178.685C181.747 37.3939 184.358 36.3148 186.517 34.1557C188.676 31.9965 189.755 29.3865 189.755 26.3238ZM190.58 39.9461C190.58 39.1872 190.338 38.5138 189.854 37.9249C189.369 37.3361 188.748 36.9762 187.989 36.8454C185.319 39.2008 182.218 40.378 178.685 40.378C178.449 40.378 178.279 40.3654 178.175 40.3393V43.126H187.439C188.303 43.126 189.042 42.8125 189.657 42.1838C190.272 41.5551 190.58 40.8098 190.58 39.9461ZM183.121 18.8262L182.061 34.0188C181.668 34.1497 181.302 34.2936 180.962 34.4507V18.1976C182.061 18.5116 182.78 18.7216 183.121 18.8262V18.8262ZM197.411 39.9461C197.411 42.3539 196.56 44.4089 194.858 46.1101H193.681C195.382 44.4089 196.233 42.3539 196.233 39.9461C196.233 37.5912 195.382 35.5237 193.681 33.7435C194.832 31.3886 195.409 28.9154 195.409 26.3244C195.409 23.4717 194.728 20.7891 193.367 18.2766C192.006 15.7642 190.122 13.749 187.714 12.2305H188.931C191.339 13.749 193.223 15.7642 194.584 18.2766C195.945 20.7891 196.625 23.4711 196.625 26.3244C196.625 28.863 196.036 31.3357 194.858 33.7435C196.56 35.5237 197.411 37.5912 197.411 39.9461Z" fill="white"/>
<path d="M227.355 32.5262C227.355 36.2687 226.033 39.4622 223.39 42.105C220.747 44.7478 217.554 46.0694 213.812 46.0694C210.043 46.0694 206.836 44.7548 204.193 42.1246C201.55 39.4944 200.229 36.2949 200.229 32.5262V12.2302H203.213V32.5267C203.213 35.4841 204.246 37.9906 206.314 40.0445C208.382 42.0984 210.881 43.1257 213.812 43.1257C216.717 43.1257 219.209 42.0859 221.291 40.0047C223.371 37.9246 224.412 35.4312 224.412 32.5262V12.2302H227.356V32.5262H227.355L227.355 32.5262ZM214.4 40.4169H213.811C211.613 40.4169 209.734 39.6519 208.178 38.1204C206.62 36.5893 205.842 34.7246 205.842 32.5262V12.2302H209.139L207.059 32.5267C207.059 32.5791 207.052 32.6511 207.04 32.7427C207.027 32.8343 207.02 32.9068 207.02 32.9586C207.02 34.8429 207.759 36.4983 209.238 37.9246C210.716 39.351 212.437 40.1814 214.4 40.4169ZM220.406 11.2487H218.247L211.063 3.24023H215.538L220.406 11.2487ZM231.241 32.5262C231.241 35.2742 230.58 37.8456 229.259 40.2403C227.937 42.635 226.125 44.5913 223.822 46.1092H222.605C224.933 44.6174 226.759 42.6671 228.081 40.2593C229.403 37.8516 230.064 35.2737 230.064 32.5256V12.2302H231.241V32.5262Z" fill="white"/>
<path d="M237.005 46.0699H234.061V12.1914H237.005V46.0699ZM242.108 12.1914L240.931 46.0705H239.714V12.1914H242.108Z" fill="white"/>
</svg>
