<svg width="71" height="71" viewBox="0 0 71 71" fill="none" xmlns="http://www.w3.org/2000/svg">
<g filter="url(#filter0_d_8939_70533)">
<circle cx="35.5" cy="31.5" r="31.5" fill="#108775"/>
</g>
<path d="M43.5922 31.4567L54.6929 21.8124V40.9909L43.5922 31.4567ZM29.2883 33.0899L33.1864 36.4737C33.7982 36.9935 34.5959 37.3075 35.4675 37.3075H35.4982H35.4964H35.5217C36.3951 37.3075 37.1928 36.9917 37.8118 36.4683L37.8064 36.4719L41.7045 33.0881L53.5541 43.2648H17.4441L29.2883 33.0899ZM17.4279 19.5259H53.5758L36.2129 34.6059C36.0176 34.7603 35.776 34.8442 35.5271 34.8441H35.5018H35.5036H35.4783C35.2286 34.8444 34.9861 34.7598 34.7908 34.6041L34.7926 34.6059L17.4279 19.5259ZM16.3071 21.8106L27.406 31.4549L16.3071 40.9836V21.8106ZM55.2884 17.4054C54.8553 17.1888 54.3464 17.0625 53.8068 17.0625H17.1987C16.6756 17.0626 16.1597 17.1843 15.6918 17.418L15.7116 17.409C15.1514 17.6853 14.6796 18.1128 14.3495 18.6431C14.0195 19.1735 13.8443 19.7855 13.8438 20.4102V42.3769C13.8447 43.2659 14.1983 44.1182 14.8269 44.7468C15.4555 45.3754 16.3079 45.729 17.1969 45.73H53.8013C54.6903 45.729 55.5427 45.3754 56.1713 44.7468C56.7999 44.1182 57.1535 43.2659 57.1544 42.3769V20.4102C57.1544 19.0982 56.3983 17.9612 55.2974 17.4144L55.2776 17.4054H55.2884Z" fill="white"/>
<defs>
<filter id="filter0_d_8939_70533" x="0" y="0" width="71" height="71" filterUnits="userSpaceOnUse" color-interpolation-filters="sRGB">
<feFlood flood-opacity="0" result="BackgroundImageFix"/>
<feColorMatrix in="SourceAlpha" type="matrix" values="0 0 0 0 0 0 0 0 0 0 0 0 0 0 0 0 0 0 127 0" result="hardAlpha"/>
<feOffset dy="4"/>
<feGaussianBlur stdDeviation="2"/>
<feComposite in2="hardAlpha" operator="out"/>
<feColorMatrix type="matrix" values="0 0 0 0 0 0 0 0 0 0 0 0 0 0 0 0 0 0 0.25 0"/>
<feBlend mode="normal" in2="BackgroundImageFix" result="effect1_dropShadow_8939_70533"/>
<feBlend mode="normal" in="SourceGraphic" in2="effect1_dropShadow_8939_70533" result="shape"/>
</filter>
</defs>
</svg>
