<svg width="71" height="71" viewBox="0 0 71 71" fill="none" xmlns="http://www.w3.org/2000/svg">
<g filter="url(#filter0_d_8939_70530)">
<path d="M35.5 0C17.7552 0 4 12.9982 4 30.555C4 39.7384 7.76351 47.6737 13.893 53.155C14.4073 53.6154 14.7179 54.2607 14.739 54.9509L14.9106 60.5545C14.9654 62.3416 16.8114 63.5047 18.4469 62.7826L24.6992 60.0222C25.2291 59.7886 25.8234 59.745 26.3817 59.8989C29.2549 60.6889 32.3126 61.1097 35.5 61.1097C53.2448 61.1097 67 48.1115 67 30.5547C67 12.9979 53.2448 0 35.5 0Z" fill="url(#paint0_radial_8939_70530)"/>
</g>
<path d="M16.5851 39.4905L25.8382 24.8102C27.3098 22.4748 30.4618 21.8933 32.6703 23.5495L40.0297 29.0694C40.3584 29.3159 40.7584 29.4486 41.1692 29.4474C41.5801 29.4462 41.9793 29.3112 42.3066 29.0627L52.2458 21.5194C53.5723 20.5127 55.3043 22.1002 54.4164 23.5091L45.1632 38.1896C43.6913 40.5248 40.5391 41.1063 38.3309 39.4501L30.9712 33.9302C30.6426 33.6838 30.2427 33.5512 29.8319 33.5524C29.4212 33.5536 29.022 33.6886 28.6949 33.9369L18.7551 41.4802C17.4287 42.4867 15.6969 40.8994 16.5851 39.4905Z" fill="white"/>
<defs>
<filter id="filter0_d_8939_70530" x="0" y="0" width="71" height="71" filterUnits="userSpaceOnUse" color-interpolation-filters="sRGB">
<feFlood flood-opacity="0" result="BackgroundImageFix"/>
<feColorMatrix in="SourceAlpha" type="matrix" values="0 0 0 0 0 0 0 0 0 0 0 0 0 0 0 0 0 0 127 0" result="hardAlpha"/>
<feOffset dy="4"/>
<feGaussianBlur stdDeviation="2"/>
<feComposite in2="hardAlpha" operator="out"/>
<feColorMatrix type="matrix" values="0 0 0 0 0 0 0 0 0 0 0 0 0 0 0 0 0 0 0.25 0"/>
<feBlend mode="normal" in2="BackgroundImageFix" result="effect1_dropShadow_8939_70530"/>
<feBlend mode="normal" in="SourceGraphic" in2="effect1_dropShadow_8939_70530" result="shape"/>
</filter>
<radialGradient id="paint0_radial_8939_70530" cx="0" cy="0" r="1" gradientUnits="userSpaceOnUse" gradientTransform="translate(16.1256 62.6628) scale(68.6448 68.6447)">
<stop stop-color="#0099FF"/>
<stop offset="0.60975" stop-color="#A033FF"/>
<stop offset="0.93482" stop-color="#FF5280"/>
<stop offset="1" stop-color="#FF7061"/>
</radialGradient>
</defs>
</svg>
