<svg width="71" height="71" viewBox="0 0 71 71" fill="none" xmlns="http://www.w3.org/2000/svg">
<g filter="url(#filter0_d_8939_70536)">
<circle cx="35.5" cy="31.5" r="31.5" fill="#108775"/>
</g>
<path d="M52.5675 41.5403L44.4812 34.1881C44.099 33.8407 43.5967 33.6554 43.0804 33.6714C42.5642 33.6874 42.0743 33.9033 41.7142 34.2737L36.954 39.1692C35.8082 38.9504 33.5047 38.2322 31.1335 35.867C28.7624 33.4939 28.0442 31.1844 27.8314 30.0466L32.7229 25.2843C33.0937 24.9246 33.31 24.4346 33.326 23.9182C33.3419 23.4017 33.1563 22.8993 32.8084 22.5173L25.4582 14.4331C25.1102 14.0499 24.6265 13.8174 24.1099 13.7851C23.5932 13.7528 23.0843 13.9232 22.6912 14.26L18.3746 17.962C18.0307 18.3072 17.8254 18.7665 17.7977 19.253C17.7679 19.7503 17.199 31.5305 26.3335 40.669C34.3024 48.6359 44.2843 49.2188 47.0334 49.2188C47.4352 49.2188 47.6819 49.2068 47.7476 49.2028C48.2339 49.1756 48.6931 48.9694 49.0366 48.624L52.7365 44.3054C53.0747 43.9135 53.2464 43.405 53.2148 42.8884C53.1832 42.3718 52.9509 41.888 52.5675 41.5403Z" fill="white"/>
<defs>
<filter id="filter0_d_8939_70536" x="0" y="0" width="71" height="71" filterUnits="userSpaceOnUse" color-interpolation-filters="sRGB">
<feFlood flood-opacity="0" result="BackgroundImageFix"/>
<feColorMatrix in="SourceAlpha" type="matrix" values="0 0 0 0 0 0 0 0 0 0 0 0 0 0 0 0 0 0 127 0" result="hardAlpha"/>
<feOffset dy="4"/>
<feGaussianBlur stdDeviation="2"/>
<feComposite in2="hardAlpha" operator="out"/>
<feColorMatrix type="matrix" values="0 0 0 0 0 0 0 0 0 0 0 0 0 0 0 0 0 0 0.25 0"/>
<feBlend mode="normal" in2="BackgroundImageFix" result="effect1_dropShadow_8939_70536"/>
<feBlend mode="normal" in="SourceGraphic" in2="effect1_dropShadow_8939_70536" result="shape"/>
</filter>
</defs>
</svg>
