<svg width="71" height="71" viewBox="0 0 71 71" fill="none" xmlns="http://www.w3.org/2000/svg">
<g filter="url(#filter0_d_8939_70539)">
<path d="M35.5 0C17.7552 0 4 12.9982 4 30.555C4 39.7384 7.76351 47.6737 13.893 53.155C14.4073 53.6154 14.7179 54.2607 14.739 54.9509L14.9106 60.5545C14.9654 62.3416 16.8114 63.5047 18.4469 62.7826L24.6992 60.0222C25.2291 59.7886 25.8234 59.745 26.3817 59.8989C29.2549 60.6889 32.3126 61.1097 35.5 61.1097C53.2448 61.1097 67 48.1115 67 30.5547C67 12.9979 53.2448 0 35.5 0Z" fill="#3B82F6"/>
</g>
<path d="M36.4647 28.0984V27.2124H39.1166V39.6588H37.6007C37.3006 39.6594 37.0125 39.5409 36.7996 39.3295C36.5867 39.118 36.4662 38.8308 36.4647 38.5308V38.5327C35.3577 39.343 34.0211 39.7789 32.6493 39.777C30.9352 39.777 29.2913 39.0963 28.0789 37.8847C26.8666 36.6731 26.1849 35.0296 26.1839 33.3155C26.1849 31.6015 26.8666 29.958 28.0789 28.7464C29.2913 27.5347 30.9352 26.8541 32.6493 26.8541C34.0204 26.8526 35.3563 27.2884 36.4627 28.0984H36.4647ZM25.4968 23.2119V23.6155C25.4968 24.3676 25.3964 24.9818 24.9062 25.7024L24.8471 25.7693C24.6838 25.9525 24.5249 26.1396 24.3707 26.3304L15.8597 37.0129H25.4968V38.5249C25.4968 38.6739 25.4674 38.8216 25.4103 38.9593C25.3532 39.097 25.2695 39.2221 25.1639 39.3274C25.0584 39.4327 24.9332 39.5162 24.7954 39.5731C24.6576 39.63 24.5099 39.6591 24.3608 39.6588H11.875V38.9462C11.875 38.074 12.0916 37.6842 12.3672 37.2786L21.4372 26.0469H12.253V23.2119H25.4987H25.4968ZM42.3316 39.6588C42.0809 39.6588 41.8406 39.5593 41.6633 39.3821C41.4861 39.2048 41.3866 38.9645 41.3866 38.7139V23.2119H44.2235V39.6588H42.3316ZM52.6143 26.7754C53.4691 26.7751 54.3155 26.9432 55.1053 27.27C55.895 27.5969 56.6127 28.0761 57.2173 28.6803C57.8218 29.2845 58.3015 30.0019 58.6288 30.7915C58.9561 31.581 59.1247 32.4273 59.125 33.2821C59.1253 34.1368 58.9572 34.9832 58.6303 35.773C58.3035 36.5628 57.8242 37.2804 57.22 37.885C56.6158 38.4896 55.8985 38.9692 55.1089 39.2965C54.3193 39.6239 53.473 39.7925 52.6183 39.7927C50.8921 39.7932 49.2364 39.108 48.0154 37.8878C46.7944 36.6675 46.1081 35.0122 46.1076 33.286C46.1071 31.5598 46.7923 29.9041 48.0126 28.6831C49.2328 27.4621 50.8881 26.7759 52.6143 26.7754ZM32.6512 37.1172C33.1579 37.1287 33.6617 37.0389 34.1332 36.853C34.6046 36.6671 35.0341 36.3888 35.3965 36.0345C35.759 35.6803 36.0469 35.2572 36.2435 34.7901C36.4401 34.323 36.5414 33.8213 36.5414 33.3146C36.5414 32.8078 36.4401 32.3061 36.2435 31.839C36.0469 31.3719 35.759 30.9488 35.3965 30.5946C35.0341 30.2403 34.6046 29.9621 34.1332 29.7761C33.6617 29.5902 33.1579 29.5004 32.6512 29.5119C31.6577 29.5345 30.7124 29.9451 30.0178 30.6558C29.3231 31.3664 28.9341 32.3208 28.9341 33.3146C28.9341 34.3084 29.3231 35.2627 30.0178 35.9734C30.7124 36.684 31.6577 37.0946 32.6512 37.1172ZM52.6143 37.1113C53.6299 37.1113 54.6039 36.7079 55.322 35.9897C56.0401 35.2716 56.4436 34.2976 56.4436 33.2821C56.4436 32.2665 56.0401 31.2925 55.322 30.5744C54.6039 29.8563 53.6299 29.4529 52.6143 29.4529C51.5988 29.4529 50.6248 29.8563 49.9067 30.5744C49.1886 31.2925 48.7851 32.2665 48.7851 33.2821C48.7851 34.2976 49.1886 35.2716 49.9067 35.9897C50.6248 36.7079 51.5988 37.1113 52.6143 37.1113Z" fill="white"/>
<defs>
<filter id="filter0_d_8939_70539" x="0" y="0" width="71" height="71" filterUnits="userSpaceOnUse" color-interpolation-filters="sRGB">
<feFlood flood-opacity="0" result="BackgroundImageFix"/>
<feColorMatrix in="SourceAlpha" type="matrix" values="0 0 0 0 0 0 0 0 0 0 0 0 0 0 0 0 0 0 127 0" result="hardAlpha"/>
<feOffset dy="4"/>
<feGaussianBlur stdDeviation="2"/>
<feComposite in2="hardAlpha" operator="out"/>
<feColorMatrix type="matrix" values="0 0 0 0 0 0 0 0 0 0 0 0 0 0 0 0 0 0 0.25 0"/>
<feBlend mode="normal" in2="BackgroundImageFix" result="effect1_dropShadow_8939_70539"/>
<feBlend mode="normal" in="SourceGraphic" in2="effect1_dropShadow_8939_70539" result="shape"/>
</filter>
</defs>
</svg>
