<svg width="16" height="16" viewBox="0 0 16 16" fill="none" xmlns="http://www.w3.org/2000/svg"><path fill-rule="evenodd" clip-rule="evenodd" d="M8 16C12.4183 16 16 12.4183 16 8C16 3.58172 12.4183 0 8 0C3.58172 0 0 3.58172 0 8C0 12.4183 3.58172 16 8 16ZM3.94868 6.31623C3.5578 6.18594 3.18593 6.5578 3.31623 6.94868L4.88604 11.6581C4.95409 11.8623 5.14516 12 5.36038 12H10.6396C10.8548 12 11.0459 11.8623 11.114 11.6581L12.6838 6.94868C12.8141 6.5578 12.4422 6.18594 12.0513 6.31623L10.3623 6.87923C10.1484 6.95053 9.91323 6.86985 9.78816 6.68224L8.41603 4.62404C8.21811 4.32717 7.78189 4.32717 7.58397 4.62404L6.21184 6.68224C6.08677 6.86985 5.8516 6.95053 5.6377 6.87923L3.94868 6.31623Z" fill="#212121"></path></svg>